# xmcd
#
# Track frame offsets:
#	150
#	22932
#	37485
#	52442
#	68872
#	88652
#	104322
#	120037
#	134587
#	145572
#
# Disc length: 2157 seconds
#
# Revision: 0
# Processed by: cddbd v1.5.2PL0 Copyright (c) Steve Scherf et al.
# Submitted via: EasyCDDAExtractor 10.0.3.1
#
DISCID=8d086b0a
DTITLE=NORBI - SAMER TAJM
DYEAR=1900
DGENRE=
TTITLE0=Samertajm
TTITLE1=Moje Mia100
TTITLE2=Pokręciło Się W Głowie
TTITLE3=Ballada Studencka
TTITLE4=Nie Oswajaj Mnie
TTITLE5=Kobiety Są Gorące
TTITLE6=Historia O...
TTITLE7=Żyję Właśnie Tu
TTITLE8=Norbi
TTITLE9=Spij Kochanie
EXTD=
EXTT0=
EXTT1=
EXTT2=
EXTT3=
EXTT4=
EXTT5=
EXTT6=
EXTT7=
EXTT8=
EXTT9=
PLAYORDER=
